<?xml version="1.0" encoding="UTF-8"?>
<svg id="Layer_2" data-name="Layer 2" xmlns="http://www.w3.org/2000/svg" viewBox="0 0 1234.26 125.84">
  <g id="Layer_1-2" data-name="Layer 1">
    <path d="M439.74,2.09h-39.35c-3.46,0-6.26,2.8-6.26,6.26v60.01c0,15.71-13.21,18.87-25.01,18.87s-25.01-3.16-25.01-18.87V8.35c0-3.46-2.8-6.26-6.26-6.26h-39.35c-3.46,0-6.26,2.8-6.26,6.26v61.39c0,45.68,38.98,56.1,76.89,56.1s76.89-10.43,76.89-56.1V8.35c0-3.46-2.8-6.26-6.26-6.26Z"/>
    <path d="M584.91,2.54h-120.89c-3.46,0-6.26,2.81-6.26,6.26v108.04c0,3.45,2.8,6.26,6.26,6.26h39.59c3.46,0,6.26-2.81,6.26-6.26v-20.98c0-3.46,2.8-6.26,6.26-6.26h63.27c3.46,0,6.26-2.81,6.26-6.26v-24.29c0-3.46-2.8-6.26-6.26-6.26h-63.27c-3.46,0-6.26-2.8-6.26-6.26v-.04c0-3.46,2.8-6.26,6.26-6.26h68.78c3.46,0,6.26-2.8,6.26-6.26V8.8c0-3.45-2.8-6.26-6.26-6.26Z"/>
    <path d="M1232.99,113.11l-36.34-48.48c-1.69-2.26-1.67-5.37.07-7.6l34.61-44.51c3.2-4.12.27-10.11-4.95-10.11h-42.28c-1.88-.01-3.66.83-4.85,2.28l-16.28,19.86c-2.51,3.06-7.18,3.06-9.69,0l-16.32-19.9c-1.19-1.45-2.97-2.29-4.85-2.29h-42.27c-5.21.01-8.15,6.01-4.95,10.13l34.61,44.51c1.73,2.23,1.76,5.34.07,7.6l-36.34,48.48c-3.1,4.13-.15,10.03,5.01,10.03h42.37c1.91,0,3.71-.87,4.9-2.36l17.69-22.21c2.51-3.15,7.3-3.15,9.8,0l17.7,22.24c1.19,1.49,2.99,2.36,4.9,2.36h42.38c5.16,0,8.11-5.89,5.01-10.03Z"/>
    <path d="M729.44,2.54h-120.86c-3.47,0-6.28,2.82-6.28,6.28v108c0,3.47,2.81,6.28,6.28,6.28h39.56c3.47,0,6.28-2.81,6.28-6.28v-20.94c0-3.47,2.81-6.28,6.28-6.28h63.23c3.47,0,6.28-2.82,6.28-6.28v-24.25c0-3.47-2.81-6.28-6.28-6.28h-63.23c-1.73,0-3.31-.7-4.44-1.84-1.14-1.14-1.84-2.7-1.84-4.44,0-3.47,2.81-6.28,6.28-6.28h68.74c3.46,0,6.28-2.81,6.28-6.28V8.82c0-3.46-2.82-6.28-6.28-6.28Z"/>
    <path d="M882.08,65.09c-1.91-1.28-1.94-4.04-.09-5.41,9.42-7.02,13.72-16.01,13.41-25.72-.27-8.58-6.31-17.09-11.41-21.41-10.84-9.19-28.83-10.18-44.71-10.18h-83.15c-3.46,0-6.27,2.81-6.27,6.27v108.18c0,3.44,2.78,6.24,6.22,6.27,18.1.13,71.32.44,100.68-.24,8.42-.19,18.25-1.79,22.56-3.49,9.76-3.84,20.84-14.15,19.35-31.88-.88-10.43-10.73-18.49-16.59-22.39ZM838.11,91.48c-.54.37-1.19.56-1.84.56h-35.29c-3.47,0-6.28-2.8-6.28-6.27v-1.78c0-3.46,2.8-6.26,6.26-6.27l35.37-.1c.63,0,1.24.17,1.77.5,2.75,1.73,3.5,4.29,3.5,6.59,0,2.52-.71,4.92-3.49,6.77ZM838.06,47.36c-.49.28-1.06.42-1.63.42h-35.45c-3.47.01-6.28-2.8-6.28-6.26v-1.88c0-3.47,2.81-6.27,6.27-6.27h35.57c.51,0,1.02.11,1.48.34,2.81,1.42,3.58,4.58,3.58,6.75,0,2.67-.76,5.35-3.54,6.9Z"/>
    <path d="M996.79,0c-67.41,0-85.54,38.6-85.54,62.17,0,25.65,18.06,63.3,85.54,63.3s85.55-37.65,85.55-63.3c0-23.57-18.12-62.17-85.55-62.17ZM996.79,87.33c-15.88,0-30.16-6.37-30.16-25.08,0-16.97,14.28-24.13,30.16-24.13s30.17,7.16,30.17,24.13c0,18.71-14.29,25.08-30.17,25.08Z"/>
    <path d="M268.38,67.25c-1.06-.8-2.07-1.51-2.98-2.12-1.92-1.27-1.94-4.03-.1-5.4,1.1-.82,2.12-1.66,3.08-2.53,7.28-6.59,10.6-14.61,10.33-23.19-.25-7.98-5.5-15.91-10.33-20.45-.36-.34-.72-.66-1.07-.96-10.84-9.19-28.83-10.18-44.71-10.18h-83.16c-3.46,0-6.27,2.8-6.27,6.26v108.19c0,3.44,2.78,6.24,6.22,6.27,11.54.08,37.4.24,62.24.16.02.01.04.01.06,0,14.05-.04,27.78-.16,38.39-.4,8.42-.19,18.24-1.79,22.55-3.49,1.9-.75,3.85-1.74,5.75-2.99,7.86-5.15,14.81-14.61,13.6-28.9-.73-8.81-7.87-15.91-13.6-20.27ZM223.54,85.83c0,3.39-2.7,6.15-6.07,6.25h-16.69s-16.7,0-16.7,0c-3.37-.1-6.06-2.86-6.06-6.25v-1.8c0-3.45,2.79-6.26,6.25-6.27l16.51-.04,16.51.04c3.45,0,6.25,2.82,6.25,6.27v1.8ZM223.54,41.57c0,3.39-2.7,6.16-6.07,6.26h-16.69s-16.7,0-16.7,0c-3.37-.1-6.06-2.87-6.06-6.26v-1.89c0-3.46,2.8-6.27,6.26-6.27h32.99c3.46,0,6.27,2.81,6.27,6.27v1.89Z"/>
    <g>
      <rect x="0" y="2.42" width="120.68" height="21.37" rx="3.81" ry="3.81"/>
      <path d="M0,36.12v11.43c0,1.61,1.41,2.92,3.15,2.92h99.43c1.77,0,3.2,1.33,3.2,2.97v24.03c0,3.12-2.73,5.63-6.08,5.63h-33.57c-3.35,0-6.08-2.51-6.08-5.63v-12.34c0-1.61-1.41-2.92-3.15-2.92H3.15c-1.74,0-3.15,1.31-3.15,2.92v55.06c0,1.61,1.41,2.92,3.15,2.92h114.39c1.74,0,3.15-1.31,3.15-2.92V36.12c0-1.61-1.41-2.92-3.15-2.92H3.15c-1.74,0-3.15,1.31-3.15,2.92Z"/>
    </g>
  </g>
</svg>